# xmcd CD database file
#
# Track frame offsets:
#	150
#	27216
#	61391
#	108403
#	139984
#	178690
#	212502
#	242817
#	300090
#
# Disc length: 4278 seconds
#
# Revision: 0
# Processed by: cddbd v1.5.2PL0 Copyright (c) Steve Scherf et al.
# Submitted via: CDex 1.51
#
DISCID=7410b409
DTITLE=The Albion Jazz Band - Highways Are Happy Ways
DYEAR=2004
DGENRE=Jazz
TTITLE0=Give It Up
TTITLE1=Climax Rag
TTITLE2=True, I'm Just Crazy Over You
TTITLE3=Buddy's Habit
TTITLE4=Blue Eyes Cryin' In The Rain
TTITLE5=Bedelia
TTITLE6=Highways Are Happy Ways
TTITLE7=Jelly Bean Blues
TTITLE8=Shake It And Break It
EXTD=YEAR: 2004
EXTT0=
EXTT1=
EXTT2=
EXTT3=
EXTT4=
EXTT5=
EXTT6=
EXTT7=
EXTT8=
PLAYORDER=
